<?xml version="1.0" encoding="utf-8"?>
<!-- Generator: Adobe Illustrator 18.0.0, SVG Export Plug-In . SVG Version: 6.00 Build 0)  -->
<!DOCTYPE svg PUBLIC "-//W3C//DTD SVG 1.1//EN" "http://www.w3.org/Graphics/SVG/1.1/DTD/svg11.dtd">
<svg version="1.1" id="Layer_1" xmlns="http://www.w3.org/2000/svg" xmlns:xlink="http://www.w3.org/1999/xlink" x="0px" y="0px"
	 width="100px" height="100px" viewBox="0 0 100 100" enable-background="new 0 0 100 100" xml:space="preserve">
<g>
	
		<radialGradient id="SVGID_1_" cx="24.01" cy="35.56" r="54.459" gradientTransform="matrix(2 0 0 2 0 0)" gradientUnits="userSpaceOnUse">
		<stop  offset="0.1818" style="stop-color:#308651"/>
		<stop  offset="1" style="stop-color:#79BA43"/>
	</radialGradient>
	<path fill="url(#SVGID_1_)" d="M6,99.5c-3,0-5.5-2.5-5.5-5.5V6C0.5,3,3,0.5,6,0.5h88c3,0,5.5,2.5,5.5,5.5v88c0,3-2.5,5.5-5.5,5.5H6
		z"/>
	<path fill="#6D6E6E" d="M94,1c2.8,0,5,2.2,5,5v88c0,2.8-2.2,5-5,5H6c-2.8,0-5-2.2-5-5V6c0-2.8,2.2-5,5-5H94 M94,0H6
		C2.7,0,0,2.7,0,6v88c0,3.3,2.7,6,6,6h88c3.3,0,6-2.7,6-6V6C100,2.7,97.3,0,94,0L94,0z"/>
</g>
<g>
	<defs>
		<path id="SVGID_2_" d="M94,100H6c-3.3,0-6-2.7-6-6V6c0-3.3,2.7-6,6-6h88c3.3,0,6,2.7,6,6v88C100,97.3,97.3,100,94,100z"/>
	</defs>
	<clipPath id="SVGID_3_">
		<use xlink:href="#SVGID_2_"  overflow="visible"/>
	</clipPath>
	
		<radialGradient id="SVGID_4_" cx="-20.3407" cy="7.6555" r="50.0276" gradientTransform="matrix(2 0 0 2 0 0)" gradientUnits="userSpaceOnUse">
		<stop  offset="0" style="stop-color:#FFFFFF"/>
		<stop  offset="1" style="stop-color:#FFFFFF;stop-opacity:0.3"/>
	</radialGradient>
	<path opacity="0.5" clip-path="url(#SVGID_3_)" fill="url(#SVGID_4_)" d="M59.4,15.3c0,55.3-44.8,100.1-100.1,100.1
		c-55.3,0-100.1-44.8-100.1-100.1c0-55.3,44.8-100.1,100.1-100.1C14.6-84.7,59.4-39.9,59.4,15.3z"/>
</g>
</svg>
